<svg class="hero_card__fqA6F" width="206" height="270" viewBox="0 0 206 270" fill="none" xmlns="http://www.w3.org/2000/svg" style="translate: none; rotate: none; scale: none; transform: translate(0px);"><g filter="url(#filter0_b_6230_2000)"><g clip-path="url(#clip0_6230_2000)"><rect x="1" y="1" width="203.523" height="267.568" rx="5.69294" fill="url(#paint0_linear_6230_2000)" fill-opacity="0.8"></rect><line x1="0.998047" y1="36.2262" x2="204.521" y2="36.2262" stroke="#E3E3E3" stroke-opacity="0.3" stroke-width="0.711618"></line><g opacity="0.4"><g clip-path="url(#clip1_6230_2000)"><path d="M26.9099 25.7053C26.9099 25.9183 26.8253 26.1225 26.6747 26.2731C26.5241 26.4237 26.3198 26.5083 26.1069 26.5083L19.6828 26.5083C19.4699 26.5083 19.2656 26.4237 19.115 26.2731C18.9644 26.1225 18.8798 25.9182 18.8799 25.7053L18.8799 20.0843C18.8799 19.8713 18.9645 19.667 19.1151 19.5164C19.2657 19.3659 19.4699 19.2813 19.6829 19.2813L21.6904 19.2813L22.4934 20.4858L26.1069 20.4858C26.3199 20.4858 26.5241 20.5704 26.6747 20.721C26.8253 20.8716 26.9099 21.0758 26.9099 21.2888L26.9099 25.7053Z" stroke="#E3E3E3" stroke-width="1.06743" stroke-linecap="round" stroke-linejoin="round"></path></g><rect x="30.5605" y="20.0508" width="62.2379" height="5.69294" rx="1.42324" fill="#E3E3E3"></rect></g><line x1="18.0781" y1="53.3043" x2="187.443" y2="53.3044" stroke="#F3F3F3" stroke-opacity="0.3" stroke-width="0.711618"></line><g opacity="0.2"><rect width="136.631" height="7.11618" rx="1.42324" transform="matrix(-1 0 0 1 154.709 66.4688)" fill="#BFBFBF"></rect><rect width="169.365" height="7.11618" rx="1.42324" transform="matrix(-1 0 0 1 187.443 79.2773)" fill="#BFBFBF"></rect><rect width="136.631" height="7.11618" rx="1.42324" transform="matrix(-1 0 0 1 154.709 92.0859)" fill="#BFBFBF"></rect><rect width="99.6265" height="7.11618" rx="1.42324" transform="matrix(-1 0 0 1 117.705 104.895)" fill="#BFBFBF"></rect></g><line x1="18.0781" y1="124.465" x2="187.443" y2="124.465" stroke="#F3F3F3" stroke-opacity="0.3" stroke-width="0.711618"></line><g opacity="0.2"><rect x="18.0781" y="137.633" width="1.42324" height="19.9253" fill="#E3E3E3"></rect><rect width="156.556" height="7.11618" rx="1.42324" transform="matrix(-1 0 0 1 187.443 137.633)" fill="#E3E3E3"></rect><rect width="86.8174" height="7.11618" rx="1.42324" transform="matrix(-1 0 0 1 117.705 150.441)" fill="#E3E3E3"></rect></g><g opacity="0.1"><rect x="18.0781" y="170.367" width="169.365" height="55.5062" rx="1.42324" fill="#E3E3E3"></rect><g opacity="0.6"><rect width="118.84" height="7.11618" rx="1.42324" transform="matrix(-1 0 0 1 148.304 181.754)" fill="#452F62"></rect><rect width="58.3527" height="7.11618" rx="1.42324" transform="matrix(-1 0 0 1 87.8164 194.562)" fill="#452F62"></rect><rect width="20.6369" height="7.11618" rx="1.42324" transform="matrix(-1 0 0 1 114.146 194.562)" fill="#E3E3E3"></rect><rect width="56.2178" height="7.11618" rx="1.42324" transform="matrix(-1 0 0 1 176.058 194.562)" fill="#452F62"></rect><rect width="84.6825" height="7.11618" rx="1.42324" transform="matrix(-1 0 0 1 114.146 207.371)" fill="#452F62"></rect><rect width="20.6369" height="7.11618" rx="1.42324" transform="matrix(-1 0 0 1 140.477 207.371)" fill="#E3E3E3"></rect><rect width="29.888" height="7.11618" rx="1.42324" transform="matrix(-1 0 0 1 176.058 207.371)" fill="#452F62"></rect></g></g><g opacity="0.4" clip-path="url(#clip2_6230_2000)"><path fill-rule="evenodd" clip-rule="evenodd" d="M185.126 18.5255L184.796 18.1953L184.466 18.5255L178.163 24.8277C177.725 25.2656 177.479 25.8595 177.479 26.4788V27.5731V28.0401L177.946 28.0401H179.041C179.66 28.0401 180.254 27.7941 180.692 27.3562L186.994 21.054L187.324 20.7237L186.994 20.3935L185.126 18.5255ZM183.589 20.7232L184.796 19.5162L186.003 20.7237L184.796 21.9308L183.589 20.7232ZM182.928 21.3836L178.824 25.4882C178.561 25.7509 178.413 26.1073 178.413 26.4788L178.413 27.1061H179.041C179.412 27.1061 179.769 26.9585 180.031 26.6957L184.136 22.5912L182.928 21.3836Z" fill="#E3E3E3"></path></g></g><rect x="0.619166" y="0.619166" width="204.284" height="268.33" rx="6.07378" stroke="url(#paint1_linear_6230_2000)" stroke-opacity="0.7" stroke-width="0.761669"></rect></g><defs><filter id="filter0_b_6230_2000" x="-11.5746" y="-11.5746" width="228.672" height="292.716" filterUnits="userSpaceOnUse" color-interpolation-filters="sRGB"><feFlood flood-opacity="0" result="BackgroundImageFix"></feFlood><feGaussianBlur in="BackgroundImageFix" stdDeviation="5.90643"></feGaussianBlur><feComposite in2="SourceAlpha" operator="in" result="effect1_backgroundBlur_6230_2000"></feComposite><feBlend mode="normal" in="SourceGraphic" in2="effect1_backgroundBlur_6230_2000" result="shape"></feBlend></filter><linearGradient id="paint0_linear_6230_2000" x1="204.974" y1="2.43057" x2="29.8383" y2="86.4188" gradientUnits="userSpaceOnUse"><stop offset="0.129883" stop-color="#311950"></stop><stop offset="1" stop-color="#4F3A6B"></stop></linearGradient><linearGradient id="paint1_linear_6230_2000" x1="5.50224" y1="395.919" x2="221.777" y2="-122.55" gradientUnits="userSpaceOnUse"><stop offset="0.165875" stop-color="white" stop-opacity="0"></stop><stop offset="0.35575" stop-color="#FF5CB2"></stop><stop offset="0.5306" stop-color="#4F55E3"></stop><stop offset="0.683592" stop-color="#6B56DC"></stop><stop offset="0.853162" stop-color="white" stop-opacity="0"></stop></linearGradient><clipPath id="clip0_6230_2000"><rect x="1" y="1" width="203.523" height="267.568" rx="5.69294" fill="white"></rect></clipPath><clipPath id="clip1_6230_2000"><rect width="9.63602" height="9.63602" fill="white" transform="translate(18.0781 18.0781)"></rect></clipPath><clipPath id="clip2_6230_2000"><rect width="9.96265" height="9.96265" fill="white" transform="translate(177.479 18.0781)"></rect></clipPath></defs></svg>